<svg width="1024" height="1024" viewBox="0 0 1024 1024" fill="none" xmlns="http://www.w3.org/2000/svg">
<rect width="1024" height="1024" fill="white"/>
<path d="M499.144 857.766C496.278 857.195 487.343 853.411 479.097 849.291C469.585 844.476 461.339 841.156 456.183 840.126C449.538 838.749 432.352 838.408 358.226 838.408C272.87 838.408 268.061 838.296 264.282 836.23C252.481 830.044 251.792 811.598 263.022 805.753C266.001 804.264 277.343 804.035 355.824 804.035C413.111 804.035 448.396 804.494 454.123 805.294C466.954 807.013 482.534 812.51 495.024 819.614C509.344 827.861 512.899 827.861 526.53 820.415C539.132 813.428 546.695 810.221 558.149 807.125C567.084 804.718 569.262 804.718 662.405 804.376C756.466 804.035 757.496 804.035 761.275 806.324C765.742 809.073 768.379 814.688 768.379 821.445C768.379 828.09 764.942 833.476 758.868 836.112C754.283 838.29 750.275 838.402 664.006 838.402C560.551 838.402 566.166 837.943 544.165 849.285C527.096 858.108 513.806 860.627 499.138 857.761L499.144 857.766Z" fill="#115E7F"/>
<path d="M506.595 788.684C504.765 787.766 473.717 757.519 437.737 721.433C387.213 670.679 372.087 654.87 371.516 652.121C370.486 647.654 373.122 640.891 376.33 639.173C377.937 638.372 390.191 637.913 411.386 637.913H444.153L444.382 576.389C444.612 536.059 445.071 514.864 445.871 514.982C446.56 515.094 451.369 516.812 456.754 518.649C478.75 526.324 507.396 529.532 529.621 526.895C542.911 525.288 561.01 520.938 570.409 517.154C573.959 515.665 577.284 514.747 577.625 515.094C577.967 515.435 578.196 543.163 578.196 576.848V637.913H611.304H644.412L647.961 640.891C650.94 643.411 651.511 644.67 651.511 649.138V654.405L587.126 719.25C551.61 754.882 521.363 785.124 519.762 786.389C515.866 789.709 510.827 790.515 506.59 788.679L506.595 788.684Z" fill="#115E7F"/>
<path d="M405.771 526.206C374.606 520.591 348.714 507.531 329.815 488.172C299.338 456.783 290.403 412.557 306.213 371.544C311.71 357.453 316.636 348.86 328.785 332.133C336.348 321.821 341.045 313.804 345.971 302.916C349.75 294.669 353.305 287.336 353.876 286.647C354.564 285.729 352.958 284.24 348.837 281.833C333.717 273.357 323.058 261.438 317.448 246.547C313.322 236.006 312.41 219.166 315.27 208.283C319.626 191.444 330.162 177.695 344.258 170.82C352.622 166.582 353.422 166.465 365.111 166.465C376.795 166.465 377.372 166.577 386.077 170.932C397.189 176.547 409.332 188.919 416.783 202.551C424.688 217.1 423.199 216.182 432.48 211.945C443.481 206.906 458.372 201.98 471.091 199.225C494.005 194.187 526.43 193.957 549.114 198.537C560.797 200.944 582.91 208.278 591.621 212.745L598.496 216.182L601.591 209.767C612.015 188.342 625.994 174.481 643.181 168.178C649.025 166.118 651.886 165.77 659.791 166.117C673.999 166.918 681.215 170.126 691.068 180.096C703.44 192.586 708.825 205.988 708.825 224.322C708.825 246.777 698.743 265.223 679.608 277.942C675.023 281.15 670.556 283.898 669.643 284.128C668.613 284.469 669.643 287.907 673.652 296.618C682.816 316.323 684.076 318.501 694.964 333.739C706.765 350.237 715.241 366.506 719.938 381.856C722.804 391.367 723.034 393.657 723.034 412.215C723.034 430.773 722.804 433.069 719.938 442.345C711.804 468.696 696.336 489.09 672.963 504.44C656.236 515.323 638.708 522.198 617.742 526.206C604.911 528.725 605.712 529.184 605.712 519.449C605.712 509.938 606.283 509.137 613.275 508.107C622.557 506.618 638.366 501.35 648.449 496.424C669.531 485.882 684.764 471.562 693.475 454.034C705.847 428.943 704.016 408.319 687.86 393.086C676.288 382.086 661.739 376.7 643.752 376.7C619.808 376.7 593.916 385.864 566.877 403.969C551.297 414.393 545.223 419.778 541.903 426.312C538.354 433.416 529.873 441.891 523.457 444.758C518.643 446.935 518.643 446.935 518.643 453.233C518.643 465.146 525.517 472.939 536.059 472.939C542.933 472.939 545.57 471.909 551.756 466.753C557.254 462.168 559.778 461.597 562.527 464.693C567.342 469.961 562.415 477.754 551.067 482.91C539.384 488.295 522.539 485.776 514.634 477.524L511.426 474.204L506.842 478.213C500.538 483.94 495.959 485.546 486.218 485.546C479.114 485.546 476.706 484.975 470.75 481.997C463.304 478.33 457.919 473.062 457.919 469.395C457.919 466.759 461.815 462.638 464.334 462.638C465.364 462.638 468.343 464.357 470.979 466.535C476.824 471.461 480.72 472.95 487.018 472.95C496.759 472.95 503.516 465.505 503.975 454.163L504.317 447.406L499.161 444.657C492.174 440.878 487.248 436.064 481.174 426.899C475.788 418.653 470.061 413.727 452.186 402.038C413.693 376.717 374.97 369.96 347.701 383.709C328.684 393.332 318.831 411.09 321.692 431.025C325.47 458.294 345.176 482.238 375.882 497.017C385.847 501.832 397.536 505.493 413.575 508.93C416.671 509.619 416.671 509.731 416.671 518.783C416.671 525.428 416.33 527.947 415.294 527.835C414.493 527.835 410.255 527.035 405.782 526.229L405.771 526.206ZM591.946 359.396C599.162 352.18 599.162 334.764 591.946 327.548C587.361 323.08 583.582 322.28 578.426 324.799C573.041 327.436 570.062 332.704 569.374 341.185C568.344 352.297 572.581 360.779 580.027 362.839C584.842 364.099 588.161 363.068 591.94 359.402L591.946 359.396ZM446.901 360.544C450.68 357.565 451.94 355.158 453.317 348.401C455.607 336.029 449.079 323.999 440.027 323.999C434.3 323.999 430.745 326.518 427.996 332.474C425.477 338.089 425.13 348.86 427.425 354.24C430.863 362.486 440.486 365.582 446.901 360.544ZM673.517 256.747C689.327 241.397 691.275 215.958 677.526 201.526C672.829 196.6 667.902 194.54 660.798 194.54C653.465 194.54 650.374 195.799 644.759 200.955C639.032 205.994 634.447 214.016 630.321 225.699L627.226 234.405L637.879 245.176C643.836 251.02 650.71 258.578 653.117 261.785L657.702 267.86L662.858 264.881C665.725 263.163 670.534 259.496 673.512 256.747H673.517ZM369.226 262.474C370.945 260.067 377.59 252.851 383.893 246.435L395.353 234.634L393.293 228.101C388.366 212.404 380.574 200.72 372.557 196.936C356.171 189.261 339.679 199.684 336.583 219.849C334.635 232.109 338.072 244.369 346.324 253.993C351.021 259.378 361.215 266.712 364.081 266.712C365.111 266.712 367.401 264.764 369.237 262.474H369.226Z" fill="#115E7F"/>
</svg>
